<?xml version="1.0" encoding="UTF-8" standalone="no"?>
<!DOCTYPE svg PUBLIC "-//W3C//DTD SVG 1.1//EN" "http://www.w3.org/Graphics/SVG/1.1/DTD/svg11.dtd">
<svg width="100%" height="100%" viewBox="0 0 2550 3300" version="1.1" xmlns="http://www.w3.org/2000/svg" xmlns:xlink="http://www.w3.org/1999/xlink" xml:space="preserve" style="fill-rule:evenodd;clip-rule:evenodd;stroke-linecap:round;stroke-linejoin:round;stroke-miterlimit:1.5;">
    <g  transform="matrix(-0.999982,0.0060215,-0.00485843,-0.806832,2303.16,2529.34)">
        <path d="M1040.63,716.319C1046.1,705.379 1055.75,698.723 1066.13,698.723C1076.52,698.723 1086.16,705.379 1091.63,716.319C1203.3,939.654 1648.82,1830.69 1766.05,2065.14C1771.78,2076.61 1772.05,2091.03 1766.76,2102.82C1761.46,2114.6 1751.43,2121.91 1740.55,2121.91C1511.58,2121.91 620.684,2121.91 391.722,2121.91C380.836,2121.91 370.805,2114.6 365.51,2102.82C360.215,2091.03 360.487,2076.61 366.221,2065.14C483.448,1830.69 928.966,939.654 1040.63,716.319Z" style="fill:rgb(235,235,235);fill-opacity:0;stroke:rgb(0,153,204);stroke-width:13.76px;"/>
    </g>
    <g transform="matrix(0.104103,0.994566,-0.802463,0.0839954,2371.13,-27.6265)">
        <path d="M1040.63,716.319C1046.1,705.379 1055.75,698.723 1066.13,698.723C1076.52,698.723 1086.16,705.379 1091.63,716.319C1203.3,939.654 1648.82,1830.69 1766.05,2065.14C1771.78,2076.61 1772.05,2091.03 1766.76,2102.82C1761.46,2114.6 1751.43,2121.91 1740.55,2121.91C1511.58,2121.91 620.684,2121.91 391.722,2121.91C380.836,2121.91 370.805,2114.6 365.51,2102.82C360.215,2091.03 360.487,2076.61 366.221,2065.14C483.448,1830.69 928.966,939.654 1040.63,716.319Z" style="fill:rgb(235,235,235);fill-opacity:0;stroke:rgb(153,204,204);stroke-width:13.76px;"/>
    </g>
    <g transform="matrix(1,-1.99493e-16,1.50187e-16,0.752841,169.124,-190.6)">
        <path d="M1041.14,715.299C1046.7,704.18 1056.09,697.496 1066.13,697.496C1076.18,697.496 1085.57,704.18 1091.12,715.299C1201.15,935.345 1642.28,1817.61 1763.48,2060.02C1769.6,2072.25 1770.15,2087.96 1764.93,2100.9C1759.7,2113.84 1749.55,2121.91 1738.49,2121.91C1507,2121.91 625.27,2121.91 393.776,2121.91C382.721,2121.91 372.562,2113.84 367.338,2100.9C362.113,2087.96 362.669,2072.25 368.785,2060.02C489.987,1817.61 931.121,935.345 1041.14,715.299Z" style="fill:rgb(235,235,235);fill-opacity:0;stroke:rgb(0,51,102);stroke-width:14.12px;"/>
    </g>
</svg>
